<svg xmlns="http://www.w3.org/2000/svg" width="24.31" height="29.822" viewBox="0 0 24.31 29.822"><defs><style>.a{fill:#fff;}</style></defs><path class="a" d="M47.211,2.779a1.39,1.39,0,0,0-1.1-.314L30.031,5.135A1.321,1.321,0,0,0,28.9,6.454v4.9a1.351,1.351,0,1,0,2.7,0V7.585l13.411-2.23v24L31.6,27.12V23.351a1.351,1.351,0,1,0-2.7,0v4.9a1.321,1.321,0,0,0,1.131,1.319l16.081,2.67c.063,0,.157.031.22.031a1.5,1.5,0,0,0,.879-.314,1.3,1.3,0,0,0,.471-1.036V3.753A1.374,1.374,0,0,0,47.211,2.779Z" transform="translate(-23.372 -2.449)"/><path class="a" d="M22.575,39.407a1.309,1.309,0,0,0,0,1.884,1.366,1.366,0,0,0,1.884,0L30.05,35.7a1.309,1.309,0,0,0,0-1.884L24.46,28.225a1.333,1.333,0,0,0-1.884,1.884l3.3,3.3H12.651a1.351,1.351,0,0,0,0,2.7H25.9Z" transform="translate(-11.3 -19.855)"/></svg>